<!DOCTYPE svg PUBLIC "-//W3C//DTD SVG 1.1//EN" "http://www.w3.org/Graphics/SVG/1.1/DTD/svg11.dtd">
<!-- Uploaded to: SVG Repo, www.svgrepo.com, Transformed by: SVG Repo Mixer Tools -->
<svg width="64px" height="64px" viewBox="0 0 48 48" id="a" xmlns="http://www.w3.org/2000/svg" fill="#000000">
<g id="SVGRepo_bgCarrier" stroke-width="0"/>
<g id="SVGRepo_tracerCarrier" stroke-linecap="round" stroke-linejoin="round" stroke="#CCCCCC" stroke-width="3.168">
<defs>
<style>.c{fill:none;stroke:#000000;stroke-linecap:round;stroke-linejoin:round;}</style>
</defs>
<path class="c" d="m32.1314,28.0011c0,4.5005-3.6405,8.1489-8.1314,8.1489h0c-4.4908,0-8.1314-3.6484-8.1314-8.1489v-8.0022c0-4.5005,3.6405-8.1489,8.1314-8.1489h0c4.4908,0,8.1314,3.6484,8.1314,8.1489"/>
<circle class="c" cx="24" cy="24" r="21.5"/>
</g>
<g id="SVGRepo_iconCarrier">
<defs>
<style>.c{fill:none;stroke:#000000;stroke-linecap:round;stroke-linejoin:round;}</style>
</defs>
<path class="c" d="m32.1314,28.0011c0,4.5005-3.6405,8.1489-8.1314,8.1489h0c-4.4908,0-8.1314-3.6484-8.1314-8.1489v-8.0022c0-4.5005,3.6405-8.1489,8.1314-8.1489h0c4.4908,0,8.1314,3.6484,8.1314,8.1489"/>
<circle class="c" cx="24" cy="24" r="21.5"/>
</g>
</svg>