<svg width="32" height="32" viewBox="0 0 32 32" fill="none" xmlns="http://www.w3.org/2000/svg">
<path fill-rule="evenodd" clip-rule="evenodd" d="M16 0C7.163 0 0 7.16344 0 16C0 24.8366 7.163 32 16 32C24.837 32 32 24.8366 32 16C32 7.16344 24.837 0 16 0ZM15.554 13.5582L15.521 13.0046C15.42 11.5697 16.304 10.259 17.703 9.75059C18.218 9.56981 19.091 9.54721 19.662 9.70539C19.886 9.77318 20.311 9.99916 20.613 10.2025L21.161 10.5754L21.766 10.3833C22.102 10.2816 22.549 10.1121 22.751 9.99916C22.941 9.89747 23.109 9.84097 23.109 9.87487C23.109 10.0669 22.695 10.7223 22.348 11.0838C21.878 11.5923 22.012 11.6375 22.963 11.2985C23.534 11.1064 23.545 11.1064 23.433 11.3211C23.366 11.4341 23.019 11.8295 22.65 12.1911C22.023 12.8125 21.99 12.8803 21.99 13.4001C21.99 14.2023 21.609 15.8745 21.229 16.7897C20.523 18.5071 19.013 20.281 17.502 21.1736C15.375 22.4277 12.544 22.7441 10.16 22.0097C9.365 21.7611 8 21.1284 8 21.0154C8 20.9815 8.414 20.9363 8.918 20.925C9.97 20.9024 11.022 20.6086 11.917 20.0889L12.521 19.7273L11.828 19.4901C10.843 19.1511 9.959 18.3715 9.735 17.6371C9.668 17.3998 9.69 17.3885 10.317 17.3885L10.966 17.3772L10.417 17.1173C9.768 16.7897 9.175 16.236 8.884 15.6711C8.672 15.2643 8.403 14.2362 8.481 14.1571C8.504 14.1232 8.739 14.191 9.007 14.2814C9.779 14.5638 9.88 14.496 9.433 14.0215C8.593 13.1628 8.336 11.886 8.739 10.6771L8.929 10.1347L9.668 10.8692C11.178 12.3493 12.958 13.2306 14.995 13.4905L15.554 13.5582Z" fill="white"/>
</svg>
