<svg width="32" height="32" viewBox="0 0 32 32" fill="none" xmlns="http://www.w3.org/2000/svg">
<path fill-rule="evenodd" clip-rule="evenodd" d="M16 0C7.163 0 0 7.16344 0 16C0 24.8366 7.163 32 16 32C24.837 32 32 24.8366 32 16C32 7.16344 24.837 0 16 0ZM22.668 10.5003C23.402 10.7018 23.981 11.2956 24.177 12.0496C24.533 13.4161 24.533 16.2674 24.533 16.2674C24.533 16.2674 24.533 19.1187 24.177 20.4853C23.981 21.2393 23.402 21.8331 22.668 22.0347C21.337 22.4008 16 22.4008 16 22.4008C16 22.4008 10.663 22.4008 9.332 22.0347C8.598 21.8331 8.02 21.2393 7.823 20.4853C7.467 19.1187 7.467 16.2674 7.467 16.2674C7.467 16.2674 7.467 13.4161 7.823 12.0496C8.02 11.2956 8.598 10.7018 9.332 10.5003C10.663 10.1341 16 10.1341 16 10.1341C16 10.1341 21.337 10.1341 22.668 10.5003Z" fill="white"/>
<path fill-rule="evenodd" clip-rule="evenodd" d="M14 18.3334V13L18.267 15.6668L14 18.3334Z" fill="white"/>
</svg>
