<?xml version="1.0" encoding="UTF-8"?>
<!DOCTYPE svg PUBLIC "-//W3C//DTD SVG 1.1//EN" "http://www.w3.org/Graphics/SVG/1.1/DTD/svg11.dtd">
<svg xmlns="http://www.w3.org/2000/svg" version="1.1" width="389px" height="217px" style="shape-rendering:geometricPrecision; text-rendering:geometricPrecision; image-rendering:optimizeQuality; fill-rule:evenodd; clip-rule:evenodd" xmlns:xlink="http://www.w3.org/1999/xlink">
<g><path style="opacity:1" fill="#846346" d="M 244.5,16.5 C 243.903,17.1386 243.07,17.472 242,17.5C 236.453,15.0153 230.953,15.0153 225.5,17.5C 225.414,16.5041 225.748,15.6708 226.5,15C 228.453,13.3674 230.62,12.2007 233,11.5C 236.845,13.2766 240.678,14.9433 244.5,16.5 Z"/></g>
<g><path style="opacity:0.998" fill="#5f3010" d="M 244.5,16.5 C 245.5,16.5 246.5,16.5 247.5,16.5C 247.577,17.7498 248.244,18.5831 249.5,19C 255.14,19.1561 260.473,20.4894 265.5,23C 270.834,23.5668 276.167,24.0668 281.5,24.5C 281.833,24.5 282.167,24.5 282.5,24.5C 286.987,29.451 292.653,32.1177 299.5,32.5C 301.754,33.1237 303.421,34.457 304.5,36.5C 313.351,45.0394 316.017,55.3728 312.5,67.5C 310.803,68.3636 309.637,69.6969 309,71.5C 306.459,82.5693 302.292,92.9027 296.5,102.5C 295.196,105.303 293.196,107.636 290.5,109.5C 289.754,110.736 289.421,112.07 289.5,113.5C 289.5,114.167 289.167,114.5 288.5,114.5C 285.677,115.992 284.01,118.326 283.5,121.5C 283.167,121.5 282.833,121.5 282.5,121.5C 281.5,121.5 280.5,121.5 279.5,121.5C 279.068,120.29 278.401,119.29 277.5,118.5C 277.335,115.482 277.502,112.482 278,109.5C 284.302,104.199 290.302,98.5325 296,92.5C 299.69,86.9832 302.19,80.9832 303.5,74.5C 304.833,68.1667 304.833,61.8333 303.5,55.5C 300.781,47.2806 295.447,41.4473 287.5,38C 271.525,36.7784 255.525,35.7784 239.5,35C 233.005,33.6351 227.338,30.8018 222.5,26.5C 222.977,23.345 223.977,20.345 225.5,17.5C 230.953,15.0153 236.453,15.0153 242,17.5C 243.07,17.472 243.903,17.1386 244.5,16.5 Z"/></g>
<g><path style="opacity:1" fill="#947a5d" d="M 247.5,16.5 C 256.822,18.2643 266.155,20.0976 275.5,22C 277.723,22.5662 279.723,23.3995 281.5,24.5C 276.167,24.0668 270.834,23.5668 265.5,23C 260.473,20.4894 255.14,19.1561 249.5,19C 248.244,18.5831 247.577,17.7498 247.5,16.5 Z"/></g>
<g><path style="opacity:1" fill="#8a420b" d="M 222.5,26.5 C 227.338,30.8018 233.005,33.6351 239.5,35C 255.525,35.7784 271.525,36.7784 287.5,38C 295.447,41.4473 300.781,47.2806 303.5,55.5C 302.221,61.8411 302.221,68.1744 303.5,74.5C 302.19,80.9832 299.69,86.9832 296,92.5C 290.302,98.5325 284.302,104.199 278,109.5C 277.502,112.482 277.335,115.482 277.5,118.5C 273.879,116.869 270.879,114.535 268.5,111.5C 269.271,102.501 270.271,93.5015 271.5,84.5C 271.318,81.7737 270.818,79.1071 270,76.5C 269.617,75.944 269.117,75.6107 268.5,75.5C 266.774,72.0108 264.608,72.0108 262,75.5C 260.167,78 258.333,80.5 256.5,83C 251.172,84.1746 248.839,82.008 249.5,76.5C 250.458,69.5145 250.624,62.5145 250,55.5C 249.682,53.9391 248.849,52.7724 247.5,52C 247.833,51.6667 248.167,51.3333 248.5,51C 245.183,50.5017 241.85,50.335 238.5,50.5C 233.289,48.0107 227.622,46.6774 221.5,46.5C 220.591,40.5219 220.425,34.5219 221,28.5C 221.278,27.5842 221.778,26.9175 222.5,26.5 Z"/></g>
<g><path style="opacity:0.706" fill="#8f6e4c" d="M 282.5,24.5 C 288.416,26.7968 294.082,29.4635 299.5,32.5C 292.653,32.1177 286.987,29.451 282.5,24.5 Z"/></g>
<g><path style="opacity:0.196" fill="#a09c8a" d="M 218.5,28.5 C 218.666,35.175 218.5,41.8417 218,48.5C 215.852,49.9774 214.518,51.9774 214,54.5C 212.269,62.2256 211.102,69.8922 210.5,77.5C 210.119,69.0393 210.953,60.706 213,52.5C 214.333,50.5 215.667,48.5 217,46.5C 217.172,40.3193 217.672,34.3193 218.5,28.5 Z"/></g>
<g><path style="opacity:1" fill="#f6c9a0" d="M 238.5,50.5 C 241.85,50.335 245.183,50.5017 248.5,51C 248.167,51.3333 247.833,51.6667 247.5,52C 248.849,52.7724 249.682,53.9391 250,55.5C 250.624,62.5145 250.458,69.5145 249.5,76.5C 248.839,82.008 251.172,84.1746 256.5,83C 258.333,80.5 260.167,78 262,75.5C 264.608,72.0108 266.774,72.0108 268.5,75.5C 269.352,98.2874 269.352,99.9541 268.5,80.5C 267.325,80.281 266.325,80.6143 265.5,81.5C 263.363,87.9103 261.03,94.2436 258.5,100.5C 259,100.833 259.5,101.167 260,101.5C 261.86,99.7991 264.027,98.7991 266.5,98.5C 266.884,103.01 267.551,107.343 268.5,111.5C 270.879,114.535 273.879,116.869 277.5,118.5C 278.401,119.29 279.068,120.29 279.5,121.5C 279.5,129.167 279.5,136.833 279.5,144.5C 280.5,144.5 281.5,144.5 282.5,144.5C 282.5,145.167 282.5,145.833 282.5,146.5C 267.497,147.534 252.497,148.7 237.5,150C 235.68,150.2 234.347,151.034 233.5,152.5C 232.167,152.5 230.833,152.5 229.5,152.5C 229.5,151.833 229.833,151.5 230.5,151.5C 231.787,150.129 232.453,148.295 232.5,146C 232.316,143.135 231.982,140.302 231.5,137.5C 227.486,137.666 223.486,137.499 219.5,137C 216.666,136.955 214.166,136.121 212,134.5C 211.5,130 211,125.5 210.5,121C 210.305,118.648 210.972,116.648 212.5,115C 208.655,111.952 207.655,108.118 209.5,103.5C 210.434,102.432 210.768,101.099 210.5,99.5C 212.467,99.7394 214.301,99.4061 216,98.5C 216.325,107.857 220.825,111.357 229.5,109C 232.532,102.587 231.865,96.587 227.5,91C 221.691,89.655 217.857,91.8216 216,97.5C 215.617,96.944 215.117,96.6107 214.5,96.5C 213.735,96.9234 212.902,97.2568 212,97.5C 207.867,96.6001 203.7,95.9334 199.5,95.5C 199.351,94.448 199.517,93.448 200,92.5C 202.996,90.2674 205.829,87.9341 208.5,85.5C 210.74,84.4324 212.574,82.7658 214,80.5C 214.499,76.8484 214.665,73.1817 214.5,69.5C 220.2,70.2481 225.867,70.2481 231.5,69.5C 230.092,68.7568 228.759,67.9234 227.5,67C 223.579,66.797 219.745,66.297 216,65.5C 216.033,61.9069 215.867,58.4069 215.5,55C 216.928,52.8153 218.595,50.8153 220.5,49C 226.579,48.5192 232.579,49.0192 238.5,50.5 Z"/></g>
<g><path style="opacity:0.994" fill="#b58350" d="M 225.5,17.5 C 223.977,20.345 222.977,23.345 222.5,26.5C 221.778,26.9175 221.278,27.5842 221,28.5C 220.425,34.5219 220.591,40.5219 221.5,46.5C 227.622,46.6774 233.289,48.0107 238.5,50.5C 232.579,49.0192 226.579,48.5192 220.5,49C 218.595,50.8153 216.928,52.8153 215.5,55C 215.867,58.4069 216.033,61.9069 216,65.5C 219.745,66.297 223.579,66.797 227.5,67C 228.759,67.9234 230.092,68.7568 231.5,69.5C 225.867,70.2481 220.2,70.2481 214.5,69.5C 214.665,73.1817 214.499,76.8484 214,80.5C 212.574,82.7658 210.74,84.4324 208.5,85.5C 207.178,85.67 206.011,85.3366 205,84.5C 203.871,86.1412 202.371,87.1412 200.5,87.5C 203.833,84.1667 207.167,80.8333 210.5,77.5C 211.102,69.8922 212.269,62.2256 214,54.5C 214.518,51.9774 215.852,49.9774 218,48.5C 218.5,41.8417 218.666,35.175 218.5,28.5C 219.571,24.0236 221.904,20.3569 225.5,17.5 Z"/></g>
<g><path style="opacity:0.954" fill="#907564" d="M 304.5,36.5 C 309.09,37.9213 312.256,40.9213 314,45.5C 314.684,50.8222 315.184,56.1556 315.5,61.5C 319.5,60.1667 323.5,58.8333 327.5,57.5C 332.511,57.3341 337.511,57.5007 342.5,58C 347.327,61.332 351.993,64.832 356.5,68.5C 358.352,81.3728 359.018,94.3728 358.5,107.5C 359.029,120.172 356.696,132.505 351.5,144.5C 350.643,145.425 349.643,146.092 348.5,146.5C 345.901,146.549 343.734,147.549 342,149.5C 340.71,155.272 341.877,160.439 345.5,165C 347.909,166.707 350.575,167.54 353.5,167.5C 358.167,170.167 361.833,173.833 364.5,178.5C 366.456,190.714 365.623,202.714 362,214.5C 360.052,215.109 358.218,215.776 356.5,216.5C 333.167,216.5 309.833,216.5 286.5,216.5C 286.629,214.784 286.962,213.117 287.5,211.5C 287.515,208.121 288.515,205.121 290.5,202.5C 292.396,199.54 293.396,196.207 293.5,192.5C 297.049,188.199 299.049,183.199 299.5,177.5C 302.132,175.887 304.798,174.22 307.5,172.5C 308.562,170.978 309.229,169.312 309.5,167.5C 312.681,165.408 315.681,163.075 318.5,160.5C 320.439,156.469 320.939,152.136 320,147.5C 313.711,145.688 307.877,143.021 302.5,139.5C 296.98,134.287 293.98,127.787 293.5,120C 294.136,116.272 295.136,112.772 296.5,109.5C 299.163,106.343 300.33,102.676 300,98.5C 299.34,100.324 298.173,101.657 296.5,102.5C 302.292,92.9027 306.459,82.5693 309,71.5C 309.637,69.6969 310.803,68.3636 312.5,67.5C 316.017,55.3728 313.351,45.0394 304.5,36.5 Z"/></g>
<g><path style="opacity:0.679" fill="#928f8c" d="M 356.5,68.5 C 351.993,64.832 347.327,61.332 342.5,58C 337.511,57.5007 332.511,57.3341 327.5,57.5C 339.998,53.5783 349.664,57.2449 356.5,68.5 Z"/></g>
<g><path style="opacity:1" fill="#94563f" d="M 344.5,65.5 C 337.507,64.2132 330.507,64.2132 323.5,65.5C 329.854,62.3373 336.52,61.8373 343.5,64C 344.056,64.3826 344.389,64.8826 344.5,65.5 Z"/></g>
<g><path style="opacity:1" fill="#9b3b21" d="M 344.5,65.5 C 347.547,68.5448 350.213,71.8781 352.5,75.5C 352.738,79.8355 353.071,84.1688 353.5,88.5C 352.601,101.222 351.268,113.888 349.5,126.5C 348.029,130.38 346.862,134.38 346,138.5C 343.575,141.933 340.241,143.267 336,142.5C 329.5,142 323,141.5 316.5,141C 304.423,135.68 299.59,126.514 302,113.5C 306.67,100.156 311.337,86.8223 316,73.5C 318.705,70.9638 321.205,68.2971 323.5,65.5C 330.507,64.2132 337.507,64.2132 344.5,65.5 Z"/></g>
<g><path style="opacity:1" fill="#8f5931" d="M 303.5,55.5 C 304.833,61.8333 304.833,68.1667 303.5,74.5C 302.221,68.1744 302.221,61.8411 303.5,55.5 Z"/></g>
<g><path style="opacity:1" fill="#a6a2a0" d="M 221.5,77.5 C 225.187,78.176 228.52,79.676 231.5,82C 227.693,83.8808 223.693,85.0474 219.5,85.5C 219.283,82.5794 219.949,79.9128 221.5,77.5 Z"/></g>
<g><path style="opacity:1" fill="#e8ae82" d="M 268.5,75.5 C 269.117,75.6107 269.617,75.944 270,76.5C 270.818,79.1071 271.318,81.7737 271.5,84.5C 270.271,93.5015 269.271,102.501 268.5,111.5C 267.551,107.343 266.884,103.01 266.5,98.5C 264.027,98.7991 261.86,99.7991 260,101.5C 259.5,101.167 259,100.833 258.5,100.5C 261.03,94.2436 263.363,87.9103 265.5,81.5C 266.325,80.6143 267.325,80.281 268.5,80.5C 269.352,99.9541 269.352,98.2874 268.5,75.5 Z"/></g>
<g><path style="opacity:0.988" fill="#b08445" d="M 208.5,85.5 C 205.829,87.9341 202.996,90.2674 200,92.5C 199.517,93.448 199.351,94.448 199.5,95.5C 203.7,95.9334 207.867,96.6001 212,97.5C 212.902,97.2568 213.735,96.9234 214.5,96.5C 213.448,98.256 211.781,98.9227 209.5,98.5C 209.5,100.167 209.5,101.833 209.5,103.5C 207.655,108.118 208.655,111.952 212.5,115C 210.972,116.648 210.305,118.648 210.5,121C 211,125.5 211.5,130 212,134.5C 214.166,136.121 216.666,136.955 219.5,137C 223.486,137.499 227.486,137.666 231.5,137.5C 231.982,140.302 232.316,143.135 232.5,146C 232.453,148.295 231.787,150.129 230.5,151.5C 230.5,147.5 230.5,143.5 230.5,139.5C 223.804,139.609 217.137,139.276 210.5,138.5C 210.167,138.5 209.833,138.5 209.5,138.5C 206.905,125.307 205.905,111.974 206.5,98.5C 202.968,98.69 199.635,98.0233 196.5,96.5C 195.003,92.3088 196.336,89.3088 200.5,87.5C 202.371,87.1412 203.871,86.1412 205,84.5C 206.011,85.3366 207.178,85.67 208.5,85.5 Z"/></g>
<g><path style="opacity:1" fill="#f0b587" d="M 209.5,103.5 C 209.5,101.833 209.5,100.167 209.5,98.5C 211.781,98.9227 213.448,98.256 214.5,96.5C 215.117,96.6107 215.617,96.944 216,97.5C 217.857,91.8216 221.691,89.655 227.5,91C 231.865,96.587 232.532,102.587 229.5,109C 220.825,111.357 216.325,107.857 216,98.5C 214.301,99.4061 212.467,99.7394 210.5,99.5C 210.768,101.099 210.434,102.432 209.5,103.5 Z"/></g>
<g><path style="opacity:0.152" fill="#969b9c" d="M 356.5,68.5 C 357.79,69.0577 358.623,70.0577 359,71.5C 362.411,83.6796 362.244,95.6796 358.5,107.5C 359.018,94.3728 358.352,81.3728 356.5,68.5 Z"/></g>
<g><path style="opacity:1" fill="#92614b" d="M 352.5,75.5 C 354.806,79.227 355.806,83.3936 355.5,88C 354.394,96.1352 353.561,104.302 353,112.5C 352.259,117.402 351.092,122.068 349.5,126.5C 351.268,113.888 352.601,101.222 353.5,88.5C 353.071,84.1688 352.738,79.8355 352.5,75.5 Z"/></g>
<g><path style="opacity:0.749" fill="#979fa2" d="M 296.5,109.5 C 296.483,107.972 295.816,107.472 294.5,108C 292.598,109.73 290.931,111.563 289.5,113.5C 289.421,112.07 289.754,110.736 290.5,109.5C 293.196,107.636 295.196,105.303 296.5,102.5C 298.173,101.657 299.34,100.324 300,98.5C 300.33,102.676 299.163,106.343 296.5,109.5 Z"/></g>
<g><path style="opacity:0.263" fill="#98adb5" d="M 203.5,99.5 C 205.442,104.056 206.108,109.056 205.5,114.5C 204.787,109.602 204.121,104.602 203.5,99.5 Z"/></g>
<g><path style="opacity:0.706" fill="#ab9d84" d="M 196.5,96.5 C 199.635,98.0233 202.968,98.69 206.5,98.5C 205.905,111.974 206.905,125.307 209.5,138.5C 208.207,137.158 207.374,135.491 207,133.5C 205.988,127.204 205.488,120.871 205.5,114.5C 206.108,109.056 205.442,104.056 203.5,99.5C 200.509,99.8337 198.176,98.8337 196.5,96.5 Z"/></g>
<g><path style="opacity:0.557" fill="#8c837b" d="M 288.5,114.5 C 287.214,117.117 285.547,119.45 283.5,121.5C 284.01,118.326 285.677,115.992 288.5,114.5 Z"/></g>
<g><path style="opacity:0.904" fill="#b18243" d="M 279.5,121.5 C 280.5,121.5 281.5,121.5 282.5,121.5C 282.5,129.167 282.5,136.833 282.5,144.5C 281.5,144.5 280.5,144.5 279.5,144.5C 279.5,136.833 279.5,129.167 279.5,121.5 Z"/></g>
<g><path style="opacity:1" fill="#f3b588" d="M 251.5,127.5 C 252.833,127.5 254.167,127.5 255.5,127.5C 255.657,128.873 255.49,130.207 255,131.5C 251.38,136.789 247.38,141.789 243,146.5C 240.091,142.877 239.758,138.877 242,134.5C 244.529,131.115 247.696,128.782 251.5,127.5 Z"/></g>
<g><path style="opacity:0.21" fill="#909288" d="M 282.5,121.5 C 282.833,121.5 283.167,121.5 283.5,121.5C 283.197,130.251 283.53,138.918 284.5,147.5C 283.508,147.672 282.842,147.338 282.5,146.5C 282.5,145.833 282.5,145.167 282.5,144.5C 282.5,136.833 282.5,129.167 282.5,121.5 Z"/></g>
<g><path style="opacity:0.827" fill="#b0b0a3" d="M 210.5,138.5 C 217.137,139.276 223.804,139.609 230.5,139.5C 230.5,143.5 230.5,147.5 230.5,151.5C 229.833,151.5 229.5,151.833 229.5,152.5C 229.167,152.5 228.833,152.5 228.5,152.5C 228.793,148.563 228.46,144.73 227.5,141C 222.5,140.667 217.5,140.333 212.5,140C 211.584,139.722 210.918,139.222 210.5,138.5 Z"/></g>
<g><path style="opacity:1" fill="#958e89" d="M 302.5,139.5 C 307.877,143.021 313.711,145.688 320,147.5C 320.939,152.136 320.439,156.469 318.5,160.5C 318.665,156.818 318.499,153.152 318,149.5C 311.569,148.04 306.402,144.707 302.5,139.5 Z"/></g>
<g><path style="opacity:0.999" fill="#ede842" d="M 286.5,153.5 C 286.5,154.833 286.5,156.167 286.5,157.5C 276.808,157.472 267.141,157.972 257.5,159C 254.543,159.279 251.877,160.113 249.5,161.5C 243.566,161.895 237.732,162.895 232,164.5C 231.5,164.167 231,163.833 230.5,163.5C 232.132,160.009 233.132,156.342 233.5,152.5C 246.201,151.492 258.867,150.158 271.5,148.5C 277.449,147.805 282.449,149.472 286.5,153.5 Z"/></g>
<g><path style="opacity:1" fill="#ebdf73" d="M 282.5,146.5 C 282.842,147.338 283.508,147.672 284.5,147.5C 285.167,149.5 285.833,151.5 286.5,153.5C 282.449,149.472 277.449,147.805 271.5,148.5C 258.867,150.158 246.201,151.492 233.5,152.5C 234.347,151.034 235.68,150.2 237.5,150C 252.497,148.7 267.497,147.534 282.5,146.5 Z"/></g>
<g><path style="opacity:0.506" fill="#9aa3a7" d="M 348.5,146.5 C 347.685,147.837 346.518,148.837 345,149.5C 343.811,153.336 343.811,157.336 345,161.5C 348.261,162.882 351.094,164.882 353.5,167.5C 350.575,167.54 347.909,166.707 345.5,165C 341.877,160.439 340.71,155.272 342,149.5C 343.734,147.549 345.901,146.549 348.5,146.5 Z"/></g>
<g><path style="opacity:1" fill="#9b4025" d="M 325.5,150.5 C 329.167,150.5 332.833,150.5 336.5,150.5C 336.54,153.881 336.207,157.214 335.5,160.5C 332.167,160.5 328.833,160.5 325.5,160.5C 325.5,157.167 325.5,153.833 325.5,150.5 Z"/></g>
<g><path style="opacity:0.996" fill="#a39a43" d="M 228.5,152.5 C 228.833,152.5 229.167,152.5 229.5,152.5C 230.833,152.5 232.167,152.5 233.5,152.5C 233.132,156.342 232.132,160.009 230.5,163.5C 231,163.833 231.5,164.167 232,164.5C 237.732,162.895 243.566,161.895 249.5,161.5C 262.016,160.544 274.349,159.21 286.5,157.5C 286.5,156.167 286.5,154.833 286.5,153.5C 288.916,161.663 292.916,168.997 298.5,175.5C 298.833,176.167 299.167,176.833 299.5,177.5C 299.049,183.199 297.049,188.199 293.5,192.5C 293.433,191.041 293.766,189.708 294.5,188.5C 295.756,181.239 294.09,174.572 289.5,168.5C 289.528,166.418 288.861,164.584 287.5,163C 285,162.833 282.5,162.667 280,162.5C 263.41,164.252 246.91,166.752 230.5,170C 228.195,173.449 226.028,176.949 224,180.5C 223.202,182.259 223.369,183.926 224.5,185.5C 226.745,183.377 229.412,182.377 232.5,182.5C 235.187,182.336 237.854,182.503 240.5,183C 239.619,183.708 238.953,184.542 238.5,185.5C 235.04,190.128 231.04,194.294 226.5,198C 215.279,201.804 203.945,204.638 192.5,206.5C 180.465,208.006 168.465,209.839 156.5,212C 154.121,212.716 152.121,213.883 150.5,215.5C 149.833,215.5 149.167,215.5 148.5,215.5C 136.495,215.667 124.495,215.5 112.5,215C 116.346,214.987 119.679,213.82 122.5,211.5C 127.03,209.994 131.697,208.994 136.5,208.5C 140.877,208.423 145.21,207.923 149.5,207C 159.175,203.386 169.175,201.053 179.5,200C 181.315,199.243 182.981,198.41 184.5,197.5C 191.427,196.435 198.094,194.768 204.5,192.5C 208.025,192.654 210.859,191.321 213,188.5C 214.914,185.423 216.081,182.089 216.5,178.5C 217.596,176.897 218.93,175.397 220.5,174C 219.058,173.623 218.058,172.79 217.5,171.5C 221.078,168.689 223.411,165.022 224.5,160.5C 225.648,157.711 226.981,155.044 228.5,152.5 Z"/></g>
<g><path style="opacity:1" fill="#cdc668" d="M 286.5,157.5 C 274.349,159.21 262.016,160.544 249.5,161.5C 251.877,160.113 254.543,159.279 257.5,159C 267.141,157.972 276.808,157.472 286.5,157.5 Z"/></g>
<g><path style="opacity:1" fill="#f0eb42" d="M 289.5,168.5 C 291.167,175.167 292.833,181.833 294.5,188.5C 293.766,189.708 293.433,191.041 293.5,192.5C 291.024,195.288 290.024,198.622 290.5,202.5C 288.515,205.121 287.515,208.121 287.5,211.5C 285.896,212.287 285.229,213.62 285.5,215.5C 243.167,215.5 200.833,215.5 158.5,215.5C 167.995,213.165 177.662,210.998 187.5,209C 189.315,208.243 190.981,207.41 192.5,206.5C 203.945,204.638 215.279,201.804 226.5,198C 231.04,194.294 235.04,190.128 238.5,185.5C 241.116,184.52 243.449,183.02 245.5,181C 245.167,180.667 244.833,180.333 244.5,180C 240.818,179.778 237.152,180.111 233.5,181C 232.944,181.383 232.611,181.883 232.5,182.5C 229.412,182.377 226.745,183.377 224.5,185.5C 223.369,183.926 223.202,182.259 224,180.5C 226.028,176.949 228.195,173.449 230.5,170C 246.91,166.752 263.41,164.252 280,162.5C 282.5,162.667 285,162.833 287.5,163C 288.861,164.584 289.528,166.418 289.5,168.5 Z"/></g>
<g><path style="opacity:0.729" fill="#a7b196" d="M 224.5,160.5 C 223.411,165.022 221.078,168.689 217.5,171.5C 217.351,170.448 217.517,169.448 218,168.5C 219.946,165.58 222.113,162.913 224.5,160.5 Z"/></g>
<g><path style="opacity:0.889" fill="#9b9794" d="M 309.5,167.5 C 309.229,169.312 308.562,170.978 307.5,172.5C 304.798,174.22 302.132,175.887 299.5,177.5C 299.167,176.833 298.833,176.167 298.5,175.5C 301.596,174.24 303.929,172.074 305.5,169C 306.901,168.59 308.234,168.09 309.5,167.5 Z"/></g>
<g><path style="opacity:1" fill="#9c3b21" d="M 293.5,213.5 C 297.679,207.61 300.012,201.277 300.5,194.5C 305.253,173.628 318.253,165.461 339.5,170C 358.758,173.678 365.258,184.845 359,203.5C 356.941,206.949 355.441,210.616 354.5,214.5C 344.333,214.833 334.167,215.167 324,215.5C 313.477,215.499 303.311,214.832 293.5,213.5 Z"/></g>
<g><path style="opacity:0.424" fill="#a5b8ae" d="M 217.5,171.5 C 218.058,172.79 219.058,173.623 220.5,174C 218.93,175.397 217.596,176.897 216.5,178.5C 216.198,175.941 216.532,173.607 217.5,171.5 Z"/></g>
<g><path style="opacity:1" fill="#dad25b" d="M 289.5,168.5 C 294.09,174.572 295.756,181.239 294.5,188.5C 292.833,181.833 291.167,175.167 289.5,168.5 Z"/></g>
<g><path style="opacity:1" fill="#d4cc58" d="M 238.5,185.5 C 238.953,184.542 239.619,183.708 240.5,183C 237.854,182.503 235.187,182.336 232.5,182.5C 232.611,181.883 232.944,181.383 233.5,181C 237.152,180.111 240.818,179.778 244.5,180C 244.833,180.333 245.167,180.667 245.5,181C 243.449,183.02 241.116,184.52 238.5,185.5 Z"/></g>
<g><path style="opacity:0.686" fill="#a8ae86" d="M 216.5,178.5 C 216.081,182.089 214.914,185.423 213,188.5C 210.859,191.321 208.025,192.654 204.5,192.5C 206.291,191.609 208.124,190.609 210,189.5C 211.172,185.142 213.339,181.475 216.5,178.5 Z"/></g>
<g><path style="opacity:0.337" fill="#9fa788" d="M 204.5,192.5 C 198.094,194.768 191.427,196.435 184.5,197.5C 190.687,194.349 197.353,192.683 204.5,192.5 Z"/></g>
<g><path style="opacity:0.871" fill="#c6bb66" d="M 293.5,192.5 C 293.396,196.207 292.396,199.54 290.5,202.5C 290.024,198.622 291.024,195.288 293.5,192.5 Z"/></g>
<g><path style="opacity:1" fill="#a25a43" d="M 300.5,194.5 C 300.012,201.277 297.679,207.61 293.5,213.5C 295.262,206.873 297.595,200.539 300.5,194.5 Z"/></g>
<g><path style="opacity:0.094" fill="#9a9a98" d="M 364.5,178.5 C 365.315,179.429 366.148,180.429 367,181.5C 369.397,191.187 368.564,200.52 364.5,209.5C 364.838,211.655 364.838,213.989 364.5,216.5C 361.833,216.5 359.167,216.5 356.5,216.5C 358.218,215.776 360.052,215.109 362,214.5C 365.623,202.714 366.456,190.714 364.5,178.5 Z"/></g>
<g><path style="opacity:0.898" fill="#a6b095" d="M 184.5,197.5 C 182.981,198.41 181.315,199.243 179.5,200C 169.175,201.053 159.175,203.386 149.5,207C 145.21,207.923 140.877,208.423 136.5,208.5C 152.031,203.324 168.031,199.657 184.5,197.5 Z"/></g>
<g><path style="opacity:1" fill="#d5ce53" d="M 192.5,206.5 C 190.981,207.41 189.315,208.243 187.5,209C 177.662,210.998 167.995,213.165 158.5,215.5C 155.833,215.5 153.167,215.5 150.5,215.5C 152.121,213.883 154.121,212.716 156.5,212C 168.465,209.839 180.465,208.006 192.5,206.5 Z"/></g>
<g><path style="opacity:0.008" fill="#8f8e18" d="M 6.5,212.5 C 10.2418,212.797 13.9085,213.297 17.5,214C 15.6667,214.167 13.8333,214.333 12,214.5C 9.70469,214.453 7.87135,213.787 6.5,212.5 Z"/></g>
<g><path style="opacity:0.161" fill="#a29d38" d="M 33.5,216.5 C 30.5,216.5 27.5,216.5 24.5,216.5C 22.9749,214.964 20.9749,213.964 18.5,213.5C 18.8333,213.167 19.1667,212.833 19.5,212.5C 24.2921,214.645 28.9587,215.979 33.5,216.5 Z"/></g>
<g><path style="opacity:0.008" fill="#7f8000" d="M 88.5,216.5 C 87.8333,215.167 87.8333,215.167 88.5,216.5 Z"/></g>
<g><path style="opacity:0.647" fill="#9e9c6d" d="M 122.5,211.5 C 119.679,213.82 116.346,214.987 112.5,215C 124.495,215.5 136.495,215.667 148.5,215.5C 148.5,215.833 148.5,216.167 148.5,216.5C 129.167,216.5 109.833,216.5 90.5,216.5C 91.2625,215.732 92.2625,215.232 93.5,215C 103.248,214.406 112.915,213.24 122.5,211.5 Z"/></g>
<g><path style="opacity:1" fill="#f4f29c" d="M 287.5,211.5 C 286.962,213.117 286.629,214.784 286.5,216.5C 240.5,216.5 194.5,216.5 148.5,216.5C 148.5,216.167 148.5,215.833 148.5,215.5C 149.167,215.5 149.833,215.5 150.5,215.5C 153.167,215.5 155.833,215.5 158.5,215.5C 200.833,215.5 243.167,215.5 285.5,215.5C 285.229,213.62 285.896,212.287 287.5,211.5 Z"/></g>
</svg>
