<svg width="50" height="50" viewBox="0 0 50 50" fill="none" xmlns="http://www.w3.org/2000/svg">
<g clip-path="url(#clip0_3251_1260)">
<path d="M49.5098 25C49.5098 11.1929 38.5364 0 25 0C11.4636 0 0.490234 11.1929 0.490234 25C0.490234 38.8071 11.4636 50 25 50C38.5364 50 49.5098 38.8071 49.5098 25Z" fill="#6B77E5"/>
<path fill-rule="evenodd" clip-rule="evenodd" d="M36.6817 25.0689C36.6817 18.7323 31.4509 13.5945 24.9997 13.5945C18.5485 13.5945 13.3176 18.7323 13.3176 25.0689C13.3176 30.7958 17.5889 35.5428 23.1744 36.4044V28.3867H20.2074V25.0689H23.1744V22.5409C23.1744 19.6657 24.9188 18.0762 27.5869 18.0762C28.8652 18.0762 30.2023 18.3005 30.2023 18.3005V21.1245H28.7285C27.2782 21.1245 26.8245 22.0087 26.8245 22.9174V25.0689H30.0642L29.5468 28.3867H26.825V36.4055C32.4105 35.5444 36.6817 30.7973 36.6817 25.0689Z" fill="white"/>
</g>
<defs>
<clipPath id="clip0_3251_1260">
<rect width="50" height="50" fill="white"/>
</clipPath>
</defs>
</svg>
