<svg width="50" height="50" viewBox="0 0 50 50" fill="none" xmlns="http://www.w3.org/2000/svg">
<circle cx="25" cy="25" r="25" fill="#40DDB6"/>
<path d="M29.8804 14.9123C31.196 14.916 32.4567 15.421 33.387 16.3169C34.3173 17.2127 34.8417 18.4267 34.8456 19.6936V29.2552C34.8417 30.5222 34.3173 31.7361 33.387 32.632C32.4567 33.5278 31.196 34.0328 29.8804 34.0366H19.951C18.6353 34.0328 17.3747 33.5278 16.4444 32.632C15.5141 31.7361 14.9897 30.5222 14.9857 29.2552V19.6936C14.9897 18.4267 15.5141 17.2127 16.4444 16.3169C17.3747 15.421 18.6353 14.916 19.951 14.9123H29.8804ZM29.8804 13H19.951C16.1278 13 13 16.0121 13 19.6936V29.2552C13 32.9368 16.1278 35.9488 19.951 35.9488H29.8804C33.7035 35.9488 36.8314 32.9368 36.8314 29.2552V19.6936C36.8314 16.0121 33.7035 13 29.8804 13Z" fill="white"/>
<path d="M31.412 19.8686C31.1174 19.8686 30.8294 19.7845 30.5845 19.6269C30.3396 19.4693 30.1487 19.2452 30.0359 18.9832C29.9232 18.7211 29.8937 18.4327 29.9512 18.1545C30.0086 17.8762 30.1505 17.6207 30.3588 17.4201C30.5671 17.2195 30.8325 17.0829 31.1214 17.0275C31.4104 16.9722 31.7098 17.0006 31.982 17.1092C32.2542 17.2177 32.4868 17.4016 32.6504 17.6374C32.8141 17.8733 32.9015 18.1506 32.9015 18.4343C32.9019 18.6228 32.8636 18.8094 32.7889 18.9836C32.7142 19.1578 32.6045 19.3161 32.4662 19.4494C32.3278 19.5827 32.1634 19.6883 31.9825 19.7602C31.8016 19.8322 31.6077 19.869 31.412 19.8686ZM24.9578 20.8244C25.7434 20.8244 26.5114 21.0488 27.1646 21.4691C27.8178 21.8894 28.3269 22.4867 28.6276 23.1857C28.9282 23.8846 29.0069 24.6536 28.8536 25.3956C28.7003 26.1376 28.322 26.8191 27.7665 27.3541C27.211 27.889 26.5033 28.2533 25.7328 28.4009C24.9623 28.5485 24.1636 28.4727 23.4378 28.1832C22.712 27.8937 22.0916 27.4035 21.6552 26.7744C21.2187 26.1454 20.9858 25.4059 20.9858 24.6494C20.9869 23.6353 21.4057 22.663 22.1504 21.9459C22.8951 21.2289 23.9047 20.8255 24.9578 20.8244ZM24.9578 18.9122C23.7795 18.9122 22.6276 19.2487 21.6478 19.8791C20.6681 20.5095 19.9044 21.4055 19.4535 22.4539C19.0026 23.5022 18.8846 24.6558 19.1145 25.7687C19.3444 26.8816 19.9118 27.9038 20.745 28.7062C21.5782 29.5086 22.6398 30.055 23.7955 30.2764C24.9512 30.4977 26.1492 30.3841 27.2378 29.9499C28.3265 29.5156 29.257 28.7803 29.9116 27.8368C30.5663 26.8933 30.9157 25.7841 30.9157 24.6494C30.9157 23.1278 30.288 21.6685 29.1707 20.5926C28.0534 19.5167 26.538 18.9122 24.9578 18.9122Z" fill="white"/>
</svg>
