<svg width="50" height="50" viewBox="0 0 50 50" fill="none" xmlns="http://www.w3.org/2000/svg">
<g clip-path="url(#clip0_3251_1266)">
<path d="M49.5098 25C49.5098 11.1929 38.5364 0 25 0C11.4636 0 0.490234 11.1929 0.490234 25C0.490234 38.8071 11.4636 50 25 50C38.5364 50 49.5098 38.8071 49.5098 25Z" fill="#6B77E5"/>
<path d="M37.5167 17.2068C36.5777 17.6229 35.5842 17.8971 34.5676 18.0206C35.636 17.3825 36.4395 16.3687 36.8273 15.1694C35.8172 15.7719 34.7139 16.1946 33.5646 16.4195C33.0807 15.9022 32.4988 15.4906 31.8541 15.2099C31.2094 14.9292 30.5154 14.7851 29.8145 14.7864C26.9763 14.7864 24.6795 17.0951 24.6795 19.941C24.6775 20.3368 24.722 20.7315 24.812 21.1166C22.7768 21.0193 20.7841 20.4897 18.961 19.5618C17.1381 18.6339 15.525 17.3281 14.2251 15.7279C13.7691 16.5121 13.5279 17.4068 13.5268 18.3185C13.5268 20.1059 14.441 21.6858 15.8215 22.6114C15.0036 22.5916 14.2025 22.3708 13.4861 21.9677V22.0316C13.4861 24.5317 15.2593 26.6117 17.6061 27.0851C17.1648 27.2051 16.71 27.2659 16.2533 27.266C15.9293 27.2665 15.6059 27.2345 15.288 27.1702C15.9404 29.2182 17.8393 30.7077 20.0886 30.7502C18.2608 32.187 16.0169 32.9635 13.7094 32.9578C13.2997 32.9572 12.8905 32.9323 12.4838 32.8834C14.8312 34.4123 17.5599 35.221 20.3451 35.2133C29.8035 35.2133 34.9707 27.3564 34.9707 20.5421C34.9707 20.3187 34.9649 20.0953 34.9545 19.8772C35.9575 19.1495 36.8251 18.2452 37.5167 17.2068Z" fill="white"/>
</g>
<defs>
<clipPath id="clip0_3251_1266">
<rect width="50" height="50" fill="white"/>
</clipPath>
</defs>
</svg>
