<svg width="50" height="50" viewBox="0 0 50 50" fill="none" xmlns="http://www.w3.org/2000/svg">
<g clip-path="url(#clip0_3251_1263)">
<path d="M49.5098 25C49.5098 11.1929 38.5364 0 25 0C11.4636 0 0.490173 11.1929 0.490173 25C0.490173 38.8071 11.4636 50 25 50C38.5364 50 49.5098 38.8071 49.5098 25Z" fill="#40DDB6"/>
<path d="M37.5166 17.2068C36.5776 17.6229 35.5841 17.8971 34.5675 18.0206C35.636 17.3825 36.4394 16.3687 36.8272 15.1694C35.8171 15.7719 34.7138 16.1946 33.5646 16.4195C33.0807 15.9022 32.4987 15.4906 31.854 15.2099C31.2093 14.9292 30.5154 14.7851 29.8144 14.7864C26.9763 14.7864 24.6795 17.0951 24.6795 19.941C24.6774 20.3368 24.7219 20.7315 24.8119 21.1166C22.7767 21.0193 20.784 20.4897 18.961 19.5618C17.138 18.6339 15.525 17.3281 14.2251 15.7279C13.769 16.5121 13.5278 17.4068 13.5267 18.3185C13.5267 20.1059 14.441 21.6858 15.8214 22.6114C15.0035 22.5916 14.2024 22.3708 13.4861 21.9677V22.0316C13.4861 24.5317 15.2592 26.6117 17.6061 27.0851C17.1648 27.2051 16.71 27.2659 16.2532 27.266C15.9292 27.2665 15.6059 27.2345 15.2879 27.1702C15.9404 29.2182 17.8392 30.7077 20.0885 30.7502C18.2608 32.187 16.0168 32.9635 13.7093 32.9578C13.2997 32.9572 12.8905 32.9323 12.4837 32.8834C14.8312 34.4123 17.5599 35.221 20.3451 35.2133C29.8034 35.2133 34.9707 27.3564 34.9707 20.5421C34.9707 20.3187 34.9649 20.0953 34.9545 19.8772C35.9574 19.1495 36.8251 18.2452 37.5166 17.2068Z" fill="white"/>
</g>
<defs>
<clipPath id="clip0_3251_1263">
<rect width="50" height="50" fill="white"/>
</clipPath>
</defs>
</svg>
