<svg width="38" height="38" viewBox="0 0 38 38" fill="none" xmlns="http://www.w3.org/2000/svg">
<path d="M27.3201 0.193848H11.6561C5.75767 0.193848 0.976074 4.97545 0.976074 10.8738V26.5378C0.976074 32.4362 5.75767 37.2178 11.6561 37.2178H27.3201C33.2185 37.2178 38.0001 32.4362 38.0001 26.5378V10.8738C38.0001 4.97545 33.2185 0.193848 27.3201 0.193848Z" fill="#F6F6F6"/>
<path d="M14.8389 16.4379V25.4658H12.4276V16.4379H14.8389ZM12.2774 14.085C12.2774 13.7345 12.3998 13.4453 12.6445 13.2172C12.8893 12.9892 13.2175 12.8751 13.6291 12.8751C14.0351 12.8751 14.3606 12.9892 14.6053 13.2172C14.8556 13.4453 14.9808 13.7345 14.9808 14.085C14.9808 14.4354 14.8556 14.7247 14.6053 14.9527C14.3606 15.1808 14.0351 15.2948 13.6291 15.2948C13.2175 15.2948 12.8893 15.1808 12.6445 14.9527C12.3998 14.7247 12.2774 14.4354 12.2774 14.085ZM19.5194 18.3653V25.4658H17.1164V16.4379H19.3692L19.5194 18.3653ZM19.169 20.6348H18.5182C18.5182 19.9673 18.6044 19.3666 18.7768 18.8326C18.9493 18.293 19.1912 17.8341 19.5027 17.4558C19.8142 17.072 20.1842 16.78 20.6125 16.5798C21.0463 16.3739 21.5303 16.271 22.0643 16.271C22.487 16.271 22.8736 16.3322 23.2241 16.4546C23.5745 16.577 23.8749 16.7717 24.1252 17.0387C24.3811 17.3057 24.5757 17.6589 24.7092 18.0983C24.8483 18.5378 24.9178 19.0745 24.9178 19.7087V25.4658H22.4981V19.7003C22.4981 19.2998 22.4425 18.9883 22.3313 18.7658C22.22 18.5433 22.0559 18.3876 21.839 18.2986C21.6276 18.204 21.3662 18.1567 21.0547 18.1567C20.7321 18.1567 20.4512 18.2207 20.212 18.3486C19.9783 18.4766 19.7837 18.6546 19.6279 18.8826C19.4777 19.1051 19.3637 19.3666 19.2858 19.6669C19.2079 19.9673 19.169 20.2899 19.169 20.6348Z" fill="#2A2F2F"/>
</svg>
